<?xml version="1.0" encoding="utf-8"?>
<!-- Generator: Adobe Illustrator 19.0.0, SVG Export Plug-In . SVG Version: 6.00 Build 0)  -->
<svg version="1.1" id="Layer_1" xmlns="http://www.w3.org/2000/svg" xmlns:xlink="http://www.w3.org/1999/xlink" x="0px" y="0px"
	 viewBox="147 228.9 281 234" style="enable-background:new 147 228.9 281 234;" xml:space="preserve">
<style type="text/css">
	.st0{fill:#41A3D1;}
</style>
<path class="st0" d="M343.7,370.4h-110c-6.6,0-12-5.4-12-12v-27c0-6.6,5.4-12,12-12h110c6.6,0,12,5.4,12,12v27
	C355.7,365,350.3,370.4,343.7,370.4z"/>
<path class="st0" d="M203.7,427.2H218c6.6,0,12-5.4,12-12V271.9c0-6.6-5.4-12-12-12h-14.3c-6.6,0-12,5.4-12,12v143.3
	C191.7,421.8,197.1,427.2,203.7,427.2z"/>
<path class="st0" d="M408.8,361.1h2.5c5.9,0,10.8-4.8,10.8-10.8v-8.8c0-5.9-4.8-10.8-10.8-10.8h-2.5c-5.9,0-10.8,4.8-10.8,10.8v8.8
	C398,356.3,402.8,361.1,408.8,361.1z"/>
<path class="st0" d="M167.4,360h2.5c5.9,0,10.8-4.8,10.8-10.8v-8.8c0-5.9-4.8-10.8-10.8-10.8h-2.5c-5.9,0-10.8,4.8-10.8,10.8v8.8
	C156.7,355.2,161.5,360,167.4,360z"/>
<path class="st0" d="M394,410.5h2c6.6,0,12-5.4,12-12V293.2c0-6.6-5.4-12-12-12h-2c-6.6,0-5,5.4-5,12l-1,105.3
	C388,405.1,387.4,410.5,394,410.5z"/>
<path class="st0" d="M182,410.7h2c6.6,0,4-5.4,4-12V293.3c0-6.6,2.6-12-4-12h-2c-6.6,0-12,5.4-12,12v105.3
	C170,405.3,175.4,410.7,182,410.7z"/>
<path class="st0" d="M359,427.2h14.3c6.6,0,12-5.4,12-12V271.9c0-6.6-5.4-12-12-12H359c-6.6,0-12,5.4-12,12v143.3
	C347,421.8,352.4,427.2,359,427.2z"/>
</svg>
