<?xml version="1.0" encoding="utf-8"?>
<!-- Generator: Adobe Illustrator 19.0.0, SVG Export Plug-In . SVG Version: 6.00 Build 0)  -->
<svg version="1.1" id="Layer_1" xmlns="http://www.w3.org/2000/svg" xmlns:xlink="http://www.w3.org/1999/xlink" x="0px" y="0px"
	 viewBox="0 0 216.1 217.1" style="enable-background:new 0 0 216.1 217.1;" xml:space="preserve">
<style type="text/css">
	.st0{fill:#41A3D1;}
	.st1{fill:#FAFBFB;}
</style>
<image style="display:none;overflow:visible;" width="200" height="200" id="XMLID_2_" xlink:href="1041139-200.png"  transform="matrix(1 0 0 1 13.6429 -1.6814)">
</image>
<path id="XMLID_1_" class="st0" d="M94.1,91.3H36.6c-6.6,0-12-5.4-12-12V21.9c0-6.6,5.4-12,12-12h57.4c6.6,0,12,5.4,12,12v57.4
	C106.1,85.9,100.7,91.3,94.1,91.3z"/>
<path id="XMLID_6_" class="st0" d="M191.2,187.5h-57.4c-6.6,0-12-5.4-12-12V118c0-6.6,5.4-12,12-12h57.4c6.6,0,12,5.4,12,12v57.4
	C203.2,182.1,197.8,187.5,191.2,187.5z"/>
<path id="XMLID_7_" class="st1" d="M190.2,91.3h-57.4c-6.6,0-12-5.4-12-12V21.9c0-6.6,5.4-12,12-12h57.4c6.6,0,12,5.4,12,12v57.4
	C202.2,85.9,196.8,91.3,190.2,91.3z"/>
<path id="XMLID_8_" class="st1" d="M94.1,187.5H36.6c-6.6,0-12-5.4-12-12V118c0-6.6,5.4-12,12-12h57.4c6.6,0,12,5.4,12,12v57.4
	C106.1,182.1,100.7,187.5,94.1,187.5z"/>
</svg>
